<?xml version="1.0" encoding="UTF-8"?>
<svg id="Layer_2" data-name="Layer 2" xmlns="http://www.w3.org/2000/svg" viewBox="0 0 85.06 85.15">
  <defs>
    <style>
      .cls-1 {
        fill: #231f20;
        stroke-width: 0px;
      }
    </style>
  </defs>
  <g id="Layer_1-2" data-name="Layer 1">
    <path class="cls-1" d="m22.01,53.2c-6.49-2.17-12.76-3.81-18.54-6.51-4.85-2.27-4.53-5.78.41-8.14,2.95-1.41,6.2-2.32,9.4-3.04,1.11-.25,2.98.34,3.7,1.21,5.32,6.46,11.5,11.72,19.56,14.59-.05.44-.1.87-.16,1.31-4.65.22-9.3.43-14.38.58Z"/>
    <path class="cls-1" d="m49.3,53.28c.8-1.75,1.44-3.18,2.52-5.61,3.34,13.36.99,24.64-5.73,35.1-2,3.11-4.93,3.27-6.65-.08-1.86-3.63-3.04-7.67-4.08-11.64-.24-.93,1.1-2.44,1.96-3.47,3.89-4.7,7.87-9.32,11.97-14.29Z"/>
    <path class="cls-1" d="m34.95,10.04c1.48-2.83,2.58-5.47,4.17-7.77,2.16-3.12,4.99-3.02,6.63.27,1.83,3.66,2.93,7.7,4.07,11.65.22.75-.6,2.18-1.35,2.79-6.53,5.26-11.78,11.49-15,20.53-2.96-10.01-1.82-18.61,1.48-27.47Z"/>
    <path class="cls-1" d="m50.52,34.66c-.51-.71-.89-1.81-.81-1.85,7.63-3.31,27.65.72,33.74,6.7,2.39,2.35,2.08,4.78-.65,6.11-3.7,1.8-7.68,3.11-11.67,4.1-1.03.26-2.63-1.33-3.83-2.25-5.5-4.2-10.95-8.47-16.78-12.81Z"/>
    <path class="cls-1" d="m18.84,33.31c-2.46-5.25-4.91-10.14-6.81-15.23-.58-1.56-.27-4.41.8-5.35,1.09-.96,3.63-.5,5.49-.28,1.27.15,2.45.98,3.69,1.44,5,1.89,7.16,4.75,6.7,10.77-.49,6.41,1.25,12.98,2.16,20.77-4.19-4.2-8-8.02-12.02-12.13Z"/>
    <path class="cls-1" d="m23.7,56.69c7.14-.73,13.82-1.49,20.19-2.2-3.22,8.29-19.07,19.3-28.23,19.17-3.02-.04-4.69-1.78-3.8-4.42,1.36-4.05,3.19-8.05,5.55-11.59.75-1.12,3.82-.69,6.3-.95Z"/>
    <path class="cls-1" d="m64.65,12.58c2.91-.05,5.42,0,7.94.05-.25,2.67.11,5.58-.85,7.97-3.25,8.09-3.44,7.66-11.79,7.93-6.36.21-12.69,1.49-18.68,2.25,1.95-6.4,10.85-13.66,23.39-18.19Z"/>
    <path class="cls-1" d="m53.84,39.69c9.16,6.78,16.37,15.01,19.02,26.42.47,2.03.56,5.29-.61,6.27-1.27,1.06-4.23.24-6.42.01-.94-.1-1.8-.83-2.73-1.18-5.03-1.89-6.97-4.81-6.7-10.8.3-6.58-1.91-13.28-2.81-20.27.21-.34.25-.45.25-.45Z"/>
  </g>
</svg>