<?xml version="1.0" encoding="UTF-8"?>
<svg id="Layer_2" data-name="Layer 2" xmlns="http://www.w3.org/2000/svg" viewBox="0 0 24 16">
  <defs>
    <style>
      .cls-1 {
        fill: #1b1b1b;
        stroke-width: 0px;
      }
    </style>
  </defs>
  <g id="Layer_1-2" data-name="Layer 1">
    <path id="Combined-Shape" class="cls-1" d="m23,14c.6,0,1,.4,1,1s-.4,1-1,1H1c-.6,0-1-.4-1-1s.4-1,1-1h22Zm0-7c.6,0,1,.4,1,1s-.4,1-1,1H1c-.6,0-1-.4-1-1s.4-1,1-1h22Zm0-7c.6,0,1,.4,1,1s-.4,1-1,1H1c-.6,0-1-.4-1-1S.4,0,1,0h22Z"/>
  </g>
</svg>