<?xml version="1.0" encoding="UTF-8"?>
<svg id="Layer_2" data-name="Layer 2" xmlns="http://www.w3.org/2000/svg" viewBox="0 0 17.61 17.61">
  <defs>
    <style>
      .cls-1 {
        fill: #fff;
        stroke-width: 0px;
      }
    </style>
  </defs>
  <g id="Layer_1-2" data-name="Layer 1">
    <g id="Group-2">
      <path id="Combined-Shape" class="cls-1" d="m17.29.32c.42.42.42.99,0,1.41l-7.07,7.07,7.07,7.07c.42.42.42.99,0,1.41-.42.42-.99.42-1.41,0l-7.07-7.07-7.07,7.07c-.42.42-.99.42-1.41,0-.42-.42-.42-.99,0-1.41l7.07-7.07L.32,1.73C-.11,1.31-.11.74.32.32.74-.11,1.31-.11,1.73.32l7.07,7.07L15.87.32c.42-.42.99-.42,1.41,0Z"/>
    </g>
  </g>
</svg>